<mxfile host="Electron" agent="Mozilla/5.0 (Windows NT 10.0; Win64; x64) AppleWebKit/537.36 (KHTML, like Gecko) draw.io/24.7.17 Chrome/128.0.6613.36 Electron/32.0.1 Safari/537.36" version="24.7.17" pages="2">
  <diagram name="as-is" id="-FQbQIRzEgXYEJ3rUFKh">
    <mxGraphModel dx="1434" dy="844" grid="1" gridSize="10" guides="1" tooltips="1" connect="1" arrows="1" fold="1" page="1" pageScale="1" pageWidth="827" pageHeight="1169" math="0" shadow="0">
      <root>
        <mxCell id="0" />
        <mxCell id="1" parent="0" />
        <mxCell id="Zcm5tQwCMB2YyKj0-IPv-7" value="&lt;div style=&quot;font-size: 1px&quot;&gt;&lt;font style=&quot;font-size:22.58px;font-family:Arial;color:#000000;direction:ltr;letter-spacing:0px;line-height:120%;opacity:1&quot;&gt;Зона доступности 1&lt;br&gt;&lt;/font&gt;&lt;/div&gt;" style="verticalAlign=bottom;align=center;overflow=width;vsdxID=5;fillColor=#e3ebff;gradientColor=none;shape=stencil(vVNBDsIgEHwNRwxCjHqu+g9iaUtEaBa09fdSwdpi9dBDb8vOwOwsGcQyW/FaIEqsA3MRjcxdhdgBUSp1JUA6XyF2RCwrDIgSzE3n4VzzjtlVV3PvXmjDPdLdoOQRTrvtavNqnAKXw9mDELkBIhDJaxrJZIy/YRLfbjFvpcVgHHfS6JGu4lAK7GVwoXg5gmwjRP3VjoMpqQcm9tPKs0z0Y6crWcBHqt0PN8tJspXFfmNKdpaBH8tYwML/VPjiE6dCKhXSOMTT+PlWiC47PgE=);strokeColor=none;spacingTop=-3;spacingBottom=-3;spacingLeft=-3;spacingRight=-3;points=[];labelBackgroundColor=none;rounded=0;html=1;whiteSpace=wrap;container=0;" parent="1" vertex="1">
          <mxGeometry x="160" y="360" width="390.22" height="430" as="geometry" />
        </mxCell>
        <mxCell id="Zcm5tQwCMB2YyKj0-IPv-33" style="edgeStyle=orthogonalEdgeStyle;rounded=0;orthogonalLoop=1;jettySize=auto;html=1;" parent="1" source="Zcm5tQwCMB2YyKj0-IPv-16" target="Zcm5tQwCMB2YyKj0-IPv-27" edge="1">
          <mxGeometry relative="1" as="geometry" />
        </mxCell>
        <mxCell id="Zcm5tQwCMB2YyKj0-IPv-34" value="TCP" style="edgeLabel;html=1;align=center;verticalAlign=middle;resizable=0;points=[];container=0;" parent="Zcm5tQwCMB2YyKj0-IPv-33" vertex="1" connectable="0">
          <mxGeometry x="-0.0566" y="2" relative="1" as="geometry">
            <mxPoint as="offset" />
          </mxGeometry>
        </mxCell>
        <mxCell id="Zcm5tQwCMB2YyKj0-IPv-42" style="edgeStyle=orthogonalEdgeStyle;rounded=0;orthogonalLoop=1;jettySize=auto;html=1;" parent="1" source="Zcm5tQwCMB2YyKj0-IPv-39" target="Zcm5tQwCMB2YyKj0-IPv-15" edge="1">
          <mxGeometry relative="1" as="geometry">
            <Array as="points">
              <mxPoint x="425" y="320" />
              <mxPoint x="425" y="320" />
            </Array>
          </mxGeometry>
        </mxCell>
        <mxCell id="Zcm5tQwCMB2YyKj0-IPv-14" value="" style="shape=image;verticalLabelPosition=bottom;verticalAlign=top;imageAspect=0;aspect=fixed;image=data:image/svg+xml,PHN2ZyB4bWxucz0iaHR0cDovL3d3dy53My5vcmcvMjAwMC9zdmciIHdpZHRoPSIzMiIgaGVpZ2h0PSIzMiIgdmlld0JveD0iMCAwIDMyIDMyIiBmaWxsPSJub25lIj4mI3hhOzxwYXRoIGQ9Ik0wIDE2QzAgNy4xNjM0NCA3LjE2MzQ0IDAgMTYgMFYwQzI0LjgzNjYgMCAzMiA3LjE2MzQ0IDMyIDE2VjE2QzMyIDI0LjgzNjYgMjQuODM2NiAzMiAxNiAzMlYzMkM3LjE2MzQ0IDMyIDAgMjQuODM2NiAwIDE2VjE2WiIgZmlsbD0iIzUyODJGRiIvPiYjeGE7PHBhdGggZD0iTTExLjk5NSAyNEw3LjAwMDk4IDE3LjczOEw4Ljc4MTk4IDkuOTI3TDE2IDYuNDUzTDIzLjIxOCA5LjkyOEwyNC45OTkgMTcuNzM5TDIwLjAwNSAyNEgxMS45OTVaTTIwIDEzLjE5NkwxNS45OTkgMTAuODk5TDEyIDEzLjE5NlYxOC4xTDE2IDIwLjQwMUwyMCAxOC4xVjEzLjE5NlpNMTguNzggMTMuODk2SDE4Ljc4N0wxNiAxNS40OTlMMTMuMjE0IDEzLjg5NUgxMy4yMTlMMTUuOTk5IDEyLjI5OUwxOC43OCAxMy44OTZaIiBmaWxsPSJ3aGl0ZSIvPiYjeGE7PC9zdmc+;container=0;" parent="1" vertex="1">
          <mxGeometry x="425" y="430" width="28.571428571428573" height="28.571428571428573" as="geometry" />
        </mxCell>
        <mxCell id="Zcm5tQwCMB2YyKj0-IPv-15" style="vsdxID=5;fillColor=none;gradientColor=none;shape=stencil(vVPLEoIgFP0aljgEVuPa6j+YRGUica6U9vdhUKk4LWzG3X0cOPdcOIilTclrgShpDOiLaGVmSsQOiFJZlQKksRFiR8TSXIMoQN+qzOU175F9dNX3/obOnSP9CUoeLktIFL8KJ4flcLZN8NhtRJiDwxsf7VwhQHjAhniCDvNONhi04UbqakSuOBQCWy6cK16MWk0rRB2U/XRKVgMlSRwl+1nyhWI+s0+Xs4KYgNvPtlBKuJvVniX4En+9yfxWVpDx2yc2+Bosl0o5fw77U0PakjMzOz4B);strokeColor=#ff5958;spacingTop=-3;spacingBottom=-3;spacingLeft=-3;spacingRight=-3;points=[];labelBackgroundColor=none;rounded=0;html=1;whiteSpace=wrap;container=0;" parent="1" vertex="1">
          <mxGeometry x="360" y="420" width="130" height="100" as="geometry" />
        </mxCell>
        <mxCell id="Zcm5tQwCMB2YyKj0-IPv-16" value="&lt;div style=&quot;font-size: 1px&quot;&gt;&lt;font style=&quot;font-size:22.58px;font-family:Arial;color:#000000;direction:ltr;letter-spacing:0px;line-height:120%;opacity:1&quot;&gt;InsureTech&lt;/font&gt;&lt;/div&gt;&lt;div style=&quot;font-size: 1px&quot;&gt;&lt;font style=&quot;font-size:22.58px;font-family:Arial;color:#000000;direction:ltr;letter-spacing:0px;line-height:120%;opacity:1&quot;&gt;namespace&lt;/font&gt;&lt;/div&gt;" style="verticalAlign=bottom;align=center;overflow=width;vsdxID=6;fillColor=none;gradientColor=none;strokeColor=none;spacingTop=-3;spacingBottom=-3;spacingLeft=-3;spacingRight=-3;points=[];labelBackgroundColor=none;rounded=0;html=1;whiteSpace=wrap;container=0;" parent="1" vertex="1">
          <mxGeometry x="360" y="460" width="130" height="54" as="geometry" />
        </mxCell>
        <mxCell id="Zcm5tQwCMB2YyKj0-IPv-27" style="vsdxID=5;fillColor=none;gradientColor=none;shape=stencil(vVPLEoIgFP0aljgEVuPa6j+YRGUica6U9vdhUKk4LWzG3X0cOPdcOIilTclrgShpDOiLaGVmSsQOiFJZlQKksRFiR8TSXIMoQN+qzOU175F9dNX3/obOnSP9CUoeLktIFL8KJ4flcLZN8NhtRJiDwxsf7VwhQHjAhniCDvNONhi04UbqakSuOBQCWy6cK16MWk0rRB2U/XRKVgMlSRwl+1nyhWI+s0+Xs4KYgNvPtlBKuJvVniX4En+9yfxWVpDx2yc2+Bosl0o5fw77U0PakjMzOz4B);strokeColor=#ff5958;spacingTop=-3;spacingBottom=-3;spacingLeft=-3;spacingRight=-3;points=[];labelBackgroundColor=none;rounded=0;html=1;whiteSpace=wrap;container=0;" parent="1" vertex="1">
          <mxGeometry x="360" y="594.11" width="130" height="105.5" as="geometry" />
        </mxCell>
        <mxCell id="Zcm5tQwCMB2YyKj0-IPv-28" value="&lt;div style=&quot;font-size: 1px&quot;&gt;&lt;font style=&quot;font-size:22.58px;font-family:Arial;color:#000000;direction:ltr;letter-spacing:0px;line-height:120%;opacity:1&quot;&gt;PosrgreSQL&lt;br&gt;&lt;/font&gt;&lt;/div&gt;&lt;div style=&quot;font-size: 1px&quot;&gt;&lt;font style=&quot;font-size:22.58px;font-family:Arial;color:#000000;direction:ltr;letter-spacing:0px;line-height:120%;opacity:1&quot;&gt;(master)&lt;/font&gt;&lt;/div&gt;" style="verticalAlign=bottom;align=center;overflow=width;vsdxID=6;fillColor=none;gradientColor=none;strokeColor=none;spacingTop=-3;spacingBottom=-3;spacingLeft=-3;spacingRight=-3;points=[];labelBackgroundColor=none;rounded=0;html=1;whiteSpace=wrap;container=0;" parent="1" vertex="1">
          <mxGeometry x="360" y="639.11" width="130" height="53.21" as="geometry" />
        </mxCell>
        <mxCell id="Zcm5tQwCMB2YyKj0-IPv-30" value="" style="shape=image;verticalLabelPosition=bottom;verticalAlign=top;imageAspect=0;aspect=fixed;image=data:image/svg+xml,PHN2ZyB4bWxucz0iaHR0cDovL3d3dy53My5vcmcvMjAwMC9zdmciIHdpZHRoPSIzMiIgaGVpZ2h0PSIzMiIgdmlld0JveD0iMCAwIDMyIDMyIiBmaWxsPSJub25lIj4mI3hhOzxwYXRoIGQ9Ik0wIDE2QzAgNy4xNjM0NCA3LjE2MzQ0IDAgMTYgMFYwQzI0LjgzNjYgMCAzMiA3LjE2MzQ0IDMyIDE2VjE2QzMyIDI0LjgzNjYgMjQuODM2NiAzMiAxNiAzMlYzMkM3LjE2MzQ0IDMyIDAgMjQuODM2NiAwIDE2VjE2WiIgZmlsbD0iIzUyODJGRiIvPiYjeGE7PHBhdGggZmlsbC1ydWxlPSJldmVub2RkIiBjbGlwLXJ1bGU9ImV2ZW5vZGQiIGQ9Ik0xMyA4SDE4QzIxLjMgOCAyNCAxMC43IDI0IDE0VjI0SDIwVjIwSDIyVjE5SDE4LjZDMTUuNSAxOSAxMyAxNi41IDEzIDEzLjRWOFpNMTkgMTdIMjFWMTVIMTlWMTdaTTEyIDkuMDk5OThWMTMuNEMxMiAxNi44IDE0LjYgMTkuNyAxOCAyMC4xVjIwLjZDMTggMjIgMTUuOCAyMy4xIDEzIDIzLjFDMTAuMiAyMy4xIDggMjIgOCAyMC42VjExLjZDOCAxMC4zIDkuNyA5LjI5OTk4IDEyIDkuMDk5OThaIiBmaWxsPSJ3aGl0ZSIvPiYjeGE7PC9zdmc+;container=0;" parent="1" vertex="1">
          <mxGeometry x="404.5" y="598.11" width="36.26923076923077" height="36.26923076923077" as="geometry" />
        </mxCell>
        <mxCell id="Zcm5tQwCMB2YyKj0-IPv-38" value="" style="aspect=fixed;sketch=0;html=1;dashed=0;whitespace=wrap;verticalLabelPosition=bottom;verticalAlign=top;fillColor=#2875E2;strokeColor=#ffffff;points=[[0.005,0.63,0],[0.1,0.2,0],[0.9,0.2,0],[0.5,0,0],[0.995,0.63,0],[0.72,0.99,0],[0.5,1,0],[0.28,0.99,0]];shape=mxgraph.kubernetes.icon2;prIcon=group;container=0;" parent="1" vertex="1">
          <mxGeometry x="430.63" y="140" width="50" height="48" as="geometry" />
        </mxCell>
        <mxCell id="Zcm5tQwCMB2YyKj0-IPv-39" style="vsdxID=5;fillColor=none;gradientColor=none;shape=stencil(vVPLEoIgFP0aljgEVuPa6j+YRGUica6U9vdhUKk4LWzG3X0cOPdcOIilTclrgShpDOiLaGVmSsQOiFJZlQKksRFiR8TSXIMoQN+qzOU175F9dNX3/obOnSP9CUoeLktIFL8KJ4flcLZN8NhtRJiDwxsf7VwhQHjAhniCDvNONhi04UbqakSuOBQCWy6cK16MWk0rRB2U/XRKVgMlSRwl+1nyhWI+s0+Xs4KYgNvPtlBKuJvVniX4En+9yfxWVpDx2yc2+Bosl0o5fw77U0PakjMzOz4B);strokeColor=#ff5958;spacingTop=-3;spacingBottom=-3;spacingLeft=-3;spacingRight=-3;points=[];labelBackgroundColor=none;rounded=0;html=1;whiteSpace=wrap;container=0;" parent="1" vertex="1">
          <mxGeometry x="346.63" y="130" width="152" height="130" as="geometry" />
        </mxCell>
        <mxCell id="Zcm5tQwCMB2YyKj0-IPv-40" value="&lt;div style=&quot;font-size: 1px&quot;&gt;&lt;font style=&quot;font-size:22.58px;font-family:Arial;color:#000000;direction:ltr;letter-spacing:0px;line-height:120%;opacity:1&quot;&gt;Браузер&amp;nbsp;&lt;/font&gt;&lt;/div&gt;&lt;div style=&quot;font-size: 1px&quot;&gt;&lt;font style=&quot;font-size:22.58px;font-family:Arial;color:#000000;direction:ltr;letter-spacing:0px;line-height:120%;opacity:1&quot;&gt;пользователя&lt;/font&gt;&lt;/div&gt;" style="verticalAlign=bottom;align=center;overflow=width;vsdxID=6;fillColor=none;gradientColor=none;strokeColor=none;spacingTop=-3;spacingBottom=-3;spacingLeft=-3;spacingRight=-3;points=[];labelBackgroundColor=none;rounded=0;html=1;whiteSpace=wrap;container=0;" parent="1" vertex="1">
          <mxGeometry x="346.63" y="197" width="152" height="53" as="geometry" />
        </mxCell>
        <mxCell id="Zcm5tQwCMB2YyKj0-IPv-56" value="" style="group" parent="1" vertex="1" connectable="0">
          <mxGeometry x="190" y="580" width="320" height="133.71" as="geometry" />
        </mxCell>
        <mxCell id="Zcm5tQwCMB2YyKj0-IPv-18" style="vsdxID=6;fillColor=none;gradientColor=none;shape=stencil(vVNdD4IgFP01POIQms1nq//BEpVF4q6U9u/DoFJxPdjm2/04cO65cBDL2oo3AlHSGtAX0cncVIgdEKWyrgRIYyPEjohlhQZRgr7VucsbPiCH6Krvww29O0eGE5Q8XJaSaPcqnByWw9k2wWNZRFMHhzc+SlwhQHhATDxBj3kvWwzacCN1PSFXHEqBLRcuFC8nrbYTognKfjol65GSNIn28SL5SjGf2efL2UBMwO1nWykl3M1mzxJ8ib/eZHkrG8j47RMbfA1WSKWcP8f9uSFtyZmZHZ8=);strokeColor=#5282ff;spacingTop=-3;spacingBottom=-3;spacingLeft=-3;spacingRight=-3;points=[];labelBackgroundColor=none;rounded=0;html=1;whiteSpace=wrap;container=0;" parent="Zcm5tQwCMB2YyKj0-IPv-56" vertex="1">
          <mxGeometry width="320" height="133.70999999999998" as="geometry" />
        </mxCell>
        <mxCell id="Zcm5tQwCMB2YyKj0-IPv-29" value="" style="shape=image;verticalLabelPosition=bottom;verticalAlign=top;imageAspect=0;aspect=fixed;image=data:image/svg+xml,PHN2ZyB4bWxucz0iaHR0cDovL3d3dy53My5vcmcvMjAwMC9zdmciIHdpZHRoPSIzMiIgaGVpZ2h0PSIzMiIgdmlld0JveD0iMCAwIDMyIDMyIiBmaWxsPSJub25lIj4mI3hhOzxwYXRoIGQ9Ik0wIDE2QzAgNy4xNjM0NCA3LjE2MzQ0IDAgMTYgMFYwQzI0LjgzNjYgMCAzMiA3LjE2MzQ0IDMyIDE2VjE2QzMyIDI0LjgzNjYgMjQuODM2NiAzMiAxNiAzMlYzMkM3LjE2MzQ0IDMyIDAgMjQuODM2NiAwIDE2VjE2WiIgZmlsbD0iIzUyODJGRiIvPiYjeGE7PHBhdGggZD0iTTI0IDE1VjEzSDIyVjExQzIyIDEwLjQgMjEuNiAxMCAyMSAxMEgxOVY4SDE3VjEwSDE1VjhIMTNWMTBIMTFDMTAuNCAxMCAxMCAxMC40IDEwIDExVjEzSDhWMTVIMTBWMTdIOFYxOUgxMFYyMUMxMCAyMS42IDEwLjQgMjIgMTEgMjJIMTNWMjRIMTVWMjJIMTdWMjRIMTlWMjJIMjFDMjEuNiAyMiAyMiAyMS42IDIyIDIxVjE5SDI0VjE3SDIyVjE1SDI0Wk0xOSAxOUgxM1YxM0gxOVYxOVoiIGZpbGw9IndoaXRlIi8+JiN4YTs8L3N2Zz4=;container=0;" parent="Zcm5tQwCMB2YyKj0-IPv-56" vertex="1">
          <mxGeometry x="38.55515151515151" y="85.11" width="25.09090909090909" height="25.09090909090909" as="geometry" />
        </mxCell>
        <mxCell id="Zcm5tQwCMB2YyKj0-IPv-20" value="&lt;div style=&quot;font-size: 1px&quot;&gt;&lt;font style=&quot;font-size:22.58px;font-family:Arial;color:#000000;direction:ltr;letter-spacing:0px;line-height:120%;opacity:1&quot;&gt;VM 1&lt;br&gt;&lt;/font&gt;&lt;/div&gt;" style="verticalAlign=middle;align=center;overflow=width;vsdxID=7;fillColor=none;gradientColor=none;shape=stencil(nZBLDoAgDERP0z3SIyjew0SURgSD+Lu9kMZoXLhwN9O+tukAlrNpJg1SzDH4QW/URgNYgZTkjA4UkwJUgGXng+6DX1zLfmoymdXo17xh5zmRJ6Q42BWCfc2oJfdAr+Yv+AP9Cb7OJ3H/2JG1HNGz/84klThPVCc=);strokeColor=none;points=[];labelBackgroundColor=none;rounded=0;html=1;whiteSpace=wrap;container=0;" parent="Zcm5tQwCMB2YyKj0-IPv-56" vertex="1">
          <mxGeometry x="8.630303030303008" y="19.999999999999996" width="93.29454545454544" height="45.88999999999999" as="geometry" />
        </mxCell>
        <mxCell id="Zcm5tQwCMB2YyKj0-IPv-57" value="" style="group" parent="1" vertex="1" connectable="0">
          <mxGeometry x="190" y="400" width="320" height="133.71" as="geometry" />
        </mxCell>
        <mxCell id="Zcm5tQwCMB2YyKj0-IPv-8" value="" style="shape=image;verticalLabelPosition=bottom;verticalAlign=top;imageAspect=0;aspect=fixed;image=data:image/svg+xml,PHN2ZyB4bWxucz0iaHR0cDovL3d3dy53My5vcmcvMjAwMC9zdmciIHdpZHRoPSIzMiIgaGVpZ2h0PSIzMiIgdmlld0JveD0iMCAwIDMyIDMyIiBmaWxsPSJub25lIj4mI3hhOzxwYXRoIGQ9Ik0wIDE2QzAgNy4xNjM0NCA3LjE2MzQ0IDAgMTYgMFYwQzI0LjgzNjYgMCAzMiA3LjE2MzQ0IDMyIDE2VjE2QzMyIDI0LjgzNjYgMjQuODM2NiAzMiAxNiAzMlYzMkM3LjE2MzQ0IDMyIDAgMjQuODM2NiAwIDE2VjE2WiIgZmlsbD0iIzUyODJGRiIvPiYjeGE7PHBhdGggZD0iTTExLjk5NSAyNEw3LjAwMDk4IDE3LjczOEw4Ljc4MTk4IDkuOTI3TDE2IDYuNDUzTDIzLjIxOCA5LjkyOEwyNC45OTkgMTcuNzM5TDIwLjAwNSAyNEgxMS45OTVaTTIwIDEzLjE5NkwxNS45OTkgMTAuODk5TDEyIDEzLjE5NlYxOC4xTDE2IDIwLjQwMUwyMCAxOC4xVjEzLjE5NlpNMTguNzggMTMuODk2SDE4Ljc4N0wxNiAxNS40OTlMMTMuMjE0IDEzLjg5NUgxMy4yMTlMMTUuOTk5IDEyLjI5OUwxOC43OCAxMy44OTZaIiBmaWxsPSJ3aGl0ZSIvPiYjeGE7PC9zdmc+;container=0;" parent="Zcm5tQwCMB2YyKj0-IPv-57" vertex="1">
          <mxGeometry x="43.99515151515152" y="86.14999999999996" width="27.69545454545455" height="27.69545454545455" as="geometry" />
        </mxCell>
        <mxCell id="Zcm5tQwCMB2YyKj0-IPv-6" value="&lt;div style=&quot;font-size: 1px&quot;&gt;&lt;font style=&quot;font-size:22.58px;font-family:Arial;color:#000000;direction:ltr;letter-spacing:0px;line-height:120%;opacity:1&quot;&gt;Kubernetes&lt;br&gt;&lt;/font&gt;&lt;/div&gt;&lt;div style=&quot;font-size: 1px&quot;&gt;&lt;font style=&quot;font-size:22.58px;font-family:Arial;color:#000000;direction:ltr;letter-spacing:0px;line-height:120%;opacity:1&quot;&gt;cluster 1&lt;/font&gt;&lt;/div&gt;" style="verticalAlign=middle;align=center;overflow=width;vsdxID=7;fillColor=none;gradientColor=none;shape=stencil(nZBLDoAgDERP0z3SIyjew0SURgSD+Lu9kMZoXLhwN9O+tukAlrNpJg1SzDH4QW/URgNYgZTkjA4UkwJUgGXng+6DX1zLfmoymdXo17xh5zmRJ6Q42BWCfc2oJfdAr+Yv+AP9Cb7OJ3H/2JG1HNGz/84klThPVCc=);strokeColor=none;points=[];labelBackgroundColor=none;rounded=0;html=1;whiteSpace=wrap;container=0;" parent="Zcm5tQwCMB2YyKj0-IPv-57" vertex="1">
          <mxGeometry x="9.696969696969697" width="116.36363636363637" height="86.13999999999999" as="geometry" />
        </mxCell>
        <mxCell id="Zcm5tQwCMB2YyKj0-IPv-5" style="vsdxID=6;fillColor=none;gradientColor=none;shape=stencil(vVNdD4IgFP01POIQms1nq//BEpVF4q6U9u/DoFJxPdjm2/04cO65cBDL2oo3AlHSGtAX0cncVIgdEKWyrgRIYyPEjohlhQZRgr7VucsbPiCH6Krvww29O0eGE5Q8XJaSaPcqnByWw9k2wWNZRFMHhzc+SlwhQHhATDxBj3kvWwzacCN1PSFXHEqBLRcuFC8nrbYTognKfjol65GSNIn28SL5SjGf2efL2UBMwO1nWykl3M1mzxJ8ib/eZHkrG8j47RMbfA1WSKWcP8f9uSFtyZmZHZ8=);strokeColor=#5282ff;spacingTop=-3;spacingBottom=-3;spacingLeft=-3;spacingRight=-3;points=[];labelBackgroundColor=none;rounded=0;html=1;whiteSpace=wrap;container=0;" parent="1" vertex="1">
          <mxGeometry x="190" y="400" width="320" height="133.70999999999998" as="geometry" />
        </mxCell>
      </root>
    </mxGraphModel>
  </diagram>
  <diagram id="Indwm3TOZkgXld23zQUD" name="to-be">
    <mxGraphModel dx="2736" dy="2313" grid="1" gridSize="10" guides="1" tooltips="1" connect="1" arrows="1" fold="1" page="1" pageScale="1" pageWidth="827" pageHeight="1169" math="0" shadow="0">
      <root>
        <mxCell id="0" />
        <mxCell id="1" parent="0" />
        <mxCell id="tqWrYZf2EMafklv9475I-51" value="&lt;div style=&quot;font-size: 1px&quot;&gt;&lt;font style=&quot;font-size:22.58px;font-family:Arial;color:#000000;direction:ltr;letter-spacing:0px;line-height:120%;opacity:1&quot;&gt;Cloud 2&lt;/font&gt;&lt;/div&gt;" style="verticalAlign=bottom;align=center;overflow=width;vsdxID=5;fillColor=#e3ebff;gradientColor=none;shape=stencil(vVNBDsIgEHwNRwxCjHqu+g9iaUtEaBa09fdSwdpi9dBDb8vOwOwsGcQyW/FaIEqsA3MRjcxdhdgBUSp1JUA6XyF2RCwrDIgSzE3n4VzzjtlVV3PvXmjDPdLdoOQRTrvtavNqnAKXw9mDELkBIhDJaxrJZIy/YRLfbjFvpcVgHHfS6JGu4lAK7GVwoXg5gmwjRP3VjoMpqQcm9tPKs0z0Y6crWcBHqt0PN8tJspXFfmNKdpaBH8tYwML/VPjiE6dCKhXSOMTT+PlWiC47PgE=);strokeColor=none;spacingTop=-3;spacingBottom=-3;spacingLeft=-3;spacingRight=-3;points=[];labelBackgroundColor=none;rounded=0;html=1;whiteSpace=wrap;container=0;" parent="1" vertex="1">
          <mxGeometry x="1280" y="359.57" width="520" height="460.43" as="geometry" />
        </mxCell>
        <mxCell id="tqWrYZf2EMafklv9475I-66" style="vsdxID=5;fillColor=none;gradientColor=none;shape=stencil(vVPLEoIgFP0aljgEVuPa6j+YRGUica6U9vdhUKk4LWzG3X0cOPdcOIilTclrgShpDOiLaGVmSsQOiFJZlQKksRFiR8TSXIMoQN+qzOU175F9dNX3/obOnSP9CUoeLktIFL8KJ4flcLZN8NhtRJiDwxsf7VwhQHjAhniCDvNONhi04UbqakSuOBQCWy6cK16MWk0rRB2U/XRKVgMlSRwl+1nyhWI+s0+Xs4KYgNvPtlBKuJvVniX4En+9yfxWVpDx2yc2+Bosl0o5fw77U0PakjMzOz4B);strokeColor=#ff5958;spacingTop=-3;spacingBottom=-3;spacingLeft=-3;spacingRight=-3;points=[];labelBackgroundColor=none;rounded=0;html=1;whiteSpace=wrap;container=0;" parent="1" vertex="1">
          <mxGeometry x="1290" y="416.86" width="350" height="143.14" as="geometry" />
        </mxCell>
        <mxCell id="ajpG1NfuQ6T0s5yXVwmS-1" value="Зона доступности 1&lt;br style=&quot;font-size: 24px;&quot;&gt;" style="verticalAlign=bottom;align=center;overflow=width;vsdxID=5;fillColor=#e3ebff;gradientColor=none;shape=stencil(vVNBDsIgEHwNRwxCjHqu+g9iaUtEaBa09fdSwdpi9dBDb8vOwOwsGcQyW/FaIEqsA3MRjcxdhdgBUSp1JUA6XyF2RCwrDIgSzE3n4VzzjtlVV3PvXmjDPdLdoOQRTrvtavNqnAKXw9mDELkBIhDJaxrJZIy/YRLfbjFvpcVgHHfS6JGu4lAK7GVwoXg5gmwjRP3VjoMpqQcm9tPKs0z0Y6crWcBHqt0PN8tJspXFfmNKdpaBH8tYwML/VPjiE6dCKhXSOMTT+PlWiC47PgE=);strokeColor=none;spacingTop=-3;spacingBottom=-3;spacingLeft=-3;spacingRight=-3;points=[];labelBackgroundColor=none;rounded=0;whiteSpace=wrap;container=0;spacing=3;html=1;fontSize=24;" parent="1" vertex="1">
          <mxGeometry x="160" y="280" width="540" height="540" as="geometry" />
        </mxCell>
        <mxCell id="FQy4KhqO56olht-40FnH-6" value="" style="group" parent="1" vertex="1" connectable="0">
          <mxGeometry x="190" y="580" width="320" height="133.71" as="geometry" />
        </mxCell>
        <mxCell id="FQy4KhqO56olht-40FnH-8" value="" style="shape=image;verticalLabelPosition=bottom;verticalAlign=top;imageAspect=0;aspect=fixed;image=data:image/svg+xml,PHN2ZyB4bWxucz0iaHR0cDovL3d3dy53My5vcmcvMjAwMC9zdmciIHdpZHRoPSIzMiIgaGVpZ2h0PSIzMiIgdmlld0JveD0iMCAwIDMyIDMyIiBmaWxsPSJub25lIj4mI3hhOzxwYXRoIGQ9Ik0wIDE2QzAgNy4xNjM0NCA3LjE2MzQ0IDAgMTYgMFYwQzI0LjgzNjYgMCAzMiA3LjE2MzQ0IDMyIDE2VjE2QzMyIDI0LjgzNjYgMjQuODM2NiAzMiAxNiAzMlYzMkM3LjE2MzQ0IDMyIDAgMjQuODM2NiAwIDE2VjE2WiIgZmlsbD0iIzUyODJGRiIvPiYjeGE7PHBhdGggZD0iTTI0IDE1VjEzSDIyVjExQzIyIDEwLjQgMjEuNiAxMCAyMSAxMEgxOVY4SDE3VjEwSDE1VjhIMTNWMTBIMTFDMTAuNCAxMCAxMCAxMC40IDEwIDExVjEzSDhWMTVIMTBWMTdIOFYxOUgxMFYyMUMxMCAyMS42IDEwLjQgMjIgMTEgMjJIMTNWMjRIMTVWMjJIMTdWMjRIMTlWMjJIMjFDMjEuNiAyMiAyMiAyMS42IDIyIDIxVjE5SDI0VjE3SDIyVjE1SDI0Wk0xOSAxOUgxM1YxM0gxOVYxOVoiIGZpbGw9IndoaXRlIi8+JiN4YTs8L3N2Zz4=;container=0;" parent="FQy4KhqO56olht-40FnH-6" vertex="1">
          <mxGeometry x="38.55515151515151" y="85.11" width="17.842424242424244" height="17.842424242424244" as="geometry" />
        </mxCell>
        <mxCell id="FQy4KhqO56olht-40FnH-9" value="&lt;div style=&quot;font-size: 1px&quot;&gt;&lt;font style=&quot;font-size:22.58px;font-family:Arial;color:#000000;direction:ltr;letter-spacing:0px;line-height:120%;opacity:1&quot;&gt;VM 1&lt;br&gt;&lt;/font&gt;&lt;/div&gt;" style="verticalAlign=middle;align=center;overflow=width;vsdxID=7;fillColor=none;gradientColor=none;shape=stencil(nZBLDoAgDERP0z3SIyjew0SURgSD+Lu9kMZoXLhwN9O+tukAlrNpJg1SzDH4QW/URgNYgZTkjA4UkwJUgGXng+6DX1zLfmoymdXo17xh5zmRJ6Q42BWCfc2oJfdAr+Yv+AP9Cb7OJ3H/2JG1HNGz/84klThPVCc=);strokeColor=none;points=[];labelBackgroundColor=none;rounded=0;html=1;whiteSpace=wrap;container=0;" parent="FQy4KhqO56olht-40FnH-6" vertex="1">
          <mxGeometry x="8.630303030303008" y="19.999999999999996" width="93.29454545454546" height="45.88999999999999" as="geometry" />
        </mxCell>
        <mxCell id="FQy4KhqO56olht-40FnH-7" style="vsdxID=6;fillColor=none;gradientColor=none;shape=stencil(vVNdD4IgFP01POIQms1nq//BEpVF4q6U9u/DoFJxPdjm2/04cO65cBDL2oo3AlHSGtAX0cncVIgdEKWyrgRIYyPEjohlhQZRgr7VucsbPiCH6Krvww29O0eGE5Q8XJaSaPcqnByWw9k2wWNZRFMHhzc+SlwhQHhATDxBj3kvWwzacCN1PSFXHEqBLRcuFC8nrbYTognKfjol65GSNIn28SL5SjGf2efL2UBMwO1nWykl3M1mzxJ8ib/eZHkrG8j47RMbfA1WSKWcP8f9uSFtyZmZHZ8=);strokeColor=#5282ff;spacingTop=-3;spacingBottom=-3;spacingLeft=-3;spacingRight=-3;points=[];labelBackgroundColor=none;rounded=0;html=1;whiteSpace=wrap;container=0;" parent="FQy4KhqO56olht-40FnH-6" vertex="1">
          <mxGeometry width="320" height="133.70999999999998" as="geometry" />
        </mxCell>
        <mxCell id="E0NsRviQQEh0W2F67jz7-7" style="vsdxID=6;fillColor=none;gradientColor=none;shape=stencil(vVNdD4IgFP01POIQms1nq//BEpVF4q6U9u/DoFJxPdjm2/04cO65cBDL2oo3AlHSGtAX0cncVIgdEKWyrgRIYyPEjohlhQZRgr7VucsbPiCH6Krvww29O0eGE5Q8XJaSaPcqnByWw9k2wWNZRFMHhzc+SlwhQHhATDxBj3kvWwzacCN1PSFXHEqBLRcuFC8nrbYTognKfjol65GSNIn28SL5SjGf2efL2UBMwO1nWykl3M1mzxJ8ib/eZHkrG8j47RMbfA1WSKWcP8f9uSFtyZmZHZ8=);strokeColor=#5282ff;spacingTop=-3;spacingBottom=-3;spacingLeft=-3;spacingRight=-3;points=[];labelBackgroundColor=none;rounded=0;html=1;whiteSpace=wrap;container=0;" parent="1" vertex="1">
          <mxGeometry x="190" y="400" width="490" height="170" as="geometry" />
        </mxCell>
        <mxCell id="Q4Ri82wqA0Fsp0xCA-Nv-1" style="vsdxID=5;fillColor=none;gradientColor=none;shape=stencil(vVPLEoIgFP0aljgEVuPa6j+YRGUica6U9vdhUKk4LWzG3X0cOPdcOIilTclrgShpDOiLaGVmSsQOiFJZlQKksRFiR8TSXIMoQN+qzOU175F9dNX3/obOnSP9CUoeLktIFL8KJ4flcLZN8NhtRJiDwxsf7VwhQHjAhniCDvNONhi04UbqakSuOBQCWy6cK16MWk0rRB2U/XRKVgMlSRwl+1nyhWI+s0+Xs4KYgNvPtlBKuJvVniX4En+9yfxWVpDx2yc2+Bosl0o5fw77U0PakjMzOz4B);strokeColor=#ff5958;spacingTop=-3;spacingBottom=-3;spacingLeft=-3;spacingRight=-3;points=[];labelBackgroundColor=none;rounded=0;html=1;whiteSpace=wrap;container=0;" parent="1" vertex="1">
          <mxGeometry x="356" y="60" width="152" height="130" as="geometry" />
        </mxCell>
        <mxCell id="4XuudusOHTykxz0nnzWx-2" value="&lt;div style=&quot;font-size: 1px&quot;&gt;&lt;font style=&quot;font-size:22.58px;font-family:Arial;color:#000000;direction:ltr;letter-spacing:0px;line-height:120%;opacity:1&quot;&gt;Браузер&amp;nbsp;&lt;/font&gt;&lt;/div&gt;&lt;div style=&quot;font-size: 1px&quot;&gt;&lt;font style=&quot;font-size:22.58px;font-family:Arial;color:#000000;direction:ltr;letter-spacing:0px;line-height:120%;opacity:1&quot;&gt;пользователя&lt;/font&gt;&lt;/div&gt;" style="verticalAlign=bottom;align=center;overflow=width;vsdxID=6;fillColor=none;gradientColor=none;strokeColor=none;spacingTop=-3;spacingBottom=-3;spacingLeft=-3;spacingRight=-3;points=[];labelBackgroundColor=none;rounded=0;html=1;whiteSpace=wrap;container=0;" parent="1" vertex="1">
          <mxGeometry x="356" y="127" width="152" height="53" as="geometry" />
        </mxCell>
        <mxCell id="sRdJVSsHiLMjh5kH81aR-1" value="" style="aspect=fixed;sketch=0;html=1;dashed=0;whitespace=wrap;verticalLabelPosition=bottom;verticalAlign=top;fillColor=#2875E2;strokeColor=#ffffff;points=[[0.005,0.63,0],[0.1,0.2,0],[0.9,0.2,0],[0.5,0,0],[0.995,0.63,0],[0.72,0.99,0],[0.5,1,0],[0.28,0.99,0]];shape=mxgraph.kubernetes.icon2;prIcon=group;container=0;" parent="1" vertex="1">
          <mxGeometry x="440" y="70" width="50" height="48" as="geometry" />
        </mxCell>
        <mxCell id="E0NsRviQQEh0W2F67jz7-2" style="vsdxID=5;fillColor=none;gradientColor=none;shape=stencil(vVPLEoIgFP0aljgEVuPa6j+YRGUica6U9vdhUKk4LWzG3X0cOPdcOIilTclrgShpDOiLaGVmSsQOiFJZlQKksRFiR8TSXIMoQN+qzOU175F9dNX3/obOnSP9CUoeLktIFL8KJ4flcLZN8NhtRJiDwxsf7VwhQHjAhniCDvNONhi04UbqakSuOBQCWy6cK16MWk0rRB2U/XRKVgMlSRwl+1nyhWI+s0+Xs4KYgNvPtlBKuJvVniX4En+9yfxWVpDx2yc2+Bosl0o5fw77U0PakjMzOz4B);strokeColor=#ff5958;spacingTop=-3;spacingBottom=-3;spacingLeft=-3;spacingRight=-3;points=[];labelBackgroundColor=none;rounded=0;html=1;whiteSpace=wrap;container=0;" parent="1" vertex="1">
          <mxGeometry x="330" y="416.86" width="330" height="123.14" as="geometry" />
        </mxCell>
        <mxCell id="E0NsRviQQEh0W2F67jz7-3" value="&lt;div style=&quot;font-size: 1px&quot;&gt;&lt;font style=&quot;font-size:22.58px;font-family:Arial;color:#000000;direction:ltr;letter-spacing:0px;line-height:120%;opacity:1&quot;&gt;InsureTech&amp;nbsp;&lt;/font&gt;&lt;span style=&quot;font-family: Arial; font-size: 22.58px; letter-spacing: 0px; background-color: initial;&quot;&gt;namespace&lt;/span&gt;&lt;/div&gt;" style="verticalAlign=bottom;align=center;overflow=width;vsdxID=6;fillColor=none;gradientColor=none;strokeColor=none;spacingTop=-3;spacingBottom=-3;spacingLeft=-3;spacingRight=-3;points=[];labelBackgroundColor=none;rounded=0;html=1;whiteSpace=wrap;container=0;" parent="1" vertex="1">
          <mxGeometry x="360" y="410" width="250" height="34" as="geometry" />
        </mxCell>
        <mxCell id="E0NsRviQQEh0W2F67jz7-4" value="" style="group" parent="1" vertex="1" connectable="0">
          <mxGeometry x="190" y="400" width="426.28" height="133.71" as="geometry" />
        </mxCell>
        <mxCell id="E0NsRviQQEh0W2F67jz7-5" value="" style="shape=image;verticalLabelPosition=bottom;verticalAlign=top;imageAspect=0;aspect=fixed;image=data:image/svg+xml,PHN2ZyB4bWxucz0iaHR0cDovL3d3dy53My5vcmcvMjAwMC9zdmciIHdpZHRoPSIzMiIgaGVpZ2h0PSIzMiIgdmlld0JveD0iMCAwIDMyIDMyIiBmaWxsPSJub25lIj4mI3hhOzxwYXRoIGQ9Ik0wIDE2QzAgNy4xNjM0NCA3LjE2MzQ0IDAgMTYgMFYwQzI0LjgzNjYgMCAzMiA3LjE2MzQ0IDMyIDE2VjE2QzMyIDI0LjgzNjYgMjQuODM2NiAzMiAxNiAzMlYzMkM3LjE2MzQ0IDMyIDAgMjQuODM2NiAwIDE2VjE2WiIgZmlsbD0iIzUyODJGRiIvPiYjeGE7PHBhdGggZD0iTTExLjk5NSAyNEw3LjAwMDk4IDE3LjczOEw4Ljc4MTk4IDkuOTI3TDE2IDYuNDUzTDIzLjIxOCA5LjkyOEwyNC45OTkgMTcuNzM5TDIwLjAwNSAyNEgxMS45OTVaTTIwIDEzLjE5NkwxNS45OTkgMTAuODk5TDEyIDEzLjE5NlYxOC4xTDE2IDIwLjQwMUwyMCAxOC4xVjEzLjE5NlpNMTguNzggMTMuODk2SDE4Ljc4N0wxNiAxNS40OTlMMTMuMjE0IDEzLjg5NUgxMy4yMTlMMTUuOTk5IDEyLjI5OUwxOC43OCAxMy44OTZaIiBmaWxsPSJ3aGl0ZSIvPiYjeGE7PC9zdmc+;container=0;" parent="E0NsRviQQEh0W2F67jz7-4" vertex="1">
          <mxGeometry x="43.99515151515152" y="86.14999999999996" width="27.69545454545455" height="27.69545454545455" as="geometry" />
        </mxCell>
        <mxCell id="E0NsRviQQEh0W2F67jz7-6" value="&lt;div style=&quot;font-size: 1px&quot;&gt;&lt;font style=&quot;font-size:22.58px;font-family:Arial;color:#000000;direction:ltr;letter-spacing:0px;line-height:120%;opacity:1&quot;&gt;Kubernetes&lt;br&gt;&lt;/font&gt;&lt;/div&gt;&lt;div style=&quot;font-size: 1px&quot;&gt;&lt;font style=&quot;font-size:22.58px;font-family:Arial;color:#000000;direction:ltr;letter-spacing:0px;line-height:120%;opacity:1&quot;&gt;cluster 1&lt;/font&gt;&lt;/div&gt;" style="verticalAlign=middle;align=center;overflow=width;vsdxID=7;fillColor=none;gradientColor=none;shape=stencil(nZBLDoAgDERP0z3SIyjew0SURgSD+Lu9kMZoXLhwN9O+tukAlrNpJg1SzDH4QW/URgNYgZTkjA4UkwJUgGXng+6DX1zLfmoymdXo17xh5zmRJ6Q42BWCfc2oJfdAr+Yv+AP9Cb7OJ3H/2JG1HNGz/84klThPVCc=);strokeColor=none;points=[];labelBackgroundColor=none;rounded=0;html=1;whiteSpace=wrap;container=0;" parent="E0NsRviQQEh0W2F67jz7-4" vertex="1">
          <mxGeometry x="9.696969696969697" width="116.36363636363637" height="86.13999999999999" as="geometry" />
        </mxCell>
        <mxCell id="E0NsRviQQEh0W2F67jz7-1" value="" style="shape=image;verticalLabelPosition=bottom;verticalAlign=top;imageAspect=0;aspect=fixed;image=data:image/svg+xml,PHN2ZyB4bWxucz0iaHR0cDovL3d3dy53My5vcmcvMjAwMC9zdmciIHdpZHRoPSIzMiIgaGVpZ2h0PSIzMiIgdmlld0JveD0iMCAwIDMyIDMyIiBmaWxsPSJub25lIj4mI3hhOzxwYXRoIGQ9Ik0wIDE2QzAgNy4xNjM0NCA3LjE2MzQ0IDAgMTYgMFYwQzI0LjgzNjYgMCAzMiA3LjE2MzQ0IDMyIDE2VjE2QzMyIDI0LjgzNjYgMjQuODM2NiAzMiAxNiAzMlYzMkM3LjE2MzQ0IDMyIDAgMjQuODM2NiAwIDE2VjE2WiIgZmlsbD0iIzUyODJGRiIvPiYjeGE7PHBhdGggZD0iTTExLjk5NSAyNEw3LjAwMDk4IDE3LjczOEw4Ljc4MTk4IDkuOTI3TDE2IDYuNDUzTDIzLjIxOCA5LjkyOEwyNC45OTkgMTcuNzM5TDIwLjAwNSAyNEgxMS45OTVaTTIwIDEzLjE5NkwxNS45OTkgMTAuODk5TDEyIDEzLjE5NlYxOC4xTDE2IDIwLjQwMUwyMCAxOC4xVjEzLjE5NlpNMTguNzggMTMuODk2SDE4Ljc4N0wxNiAxNS40OTlMMTMuMjE0IDEzLjg5NUgxMy4yMTlMMTUuOTk5IDEyLjI5OUwxOC43OCAxMy44OTZaIiBmaWxsPSJ3aGl0ZSIvPiYjeGE7PC9zdmc+;container=0;" parent="E0NsRviQQEh0W2F67jz7-4" vertex="1">
          <mxGeometry x="145.70999999999998" y="20" width="28.571428571428573" height="28.571428571428573" as="geometry" />
        </mxCell>
        <mxCell id="FQy4KhqO56olht-40FnH-1" style="edgeStyle=orthogonalEdgeStyle;rounded=0;orthogonalLoop=1;jettySize=auto;html=1;" parent="1" target="FQy4KhqO56olht-40FnH-3" edge="1">
          <mxGeometry relative="1" as="geometry">
            <mxPoint x="425" y="550" as="sourcePoint" />
          </mxGeometry>
        </mxCell>
        <mxCell id="FQy4KhqO56olht-40FnH-2" value="TCP" style="edgeLabel;html=1;align=center;verticalAlign=middle;resizable=0;points=[];container=0;" parent="FQy4KhqO56olht-40FnH-1" vertex="1" connectable="0">
          <mxGeometry x="-0.0566" y="2" relative="1" as="geometry">
            <mxPoint as="offset" />
          </mxGeometry>
        </mxCell>
        <mxCell id="FQy4KhqO56olht-40FnH-3" style="vsdxID=5;fillColor=none;gradientColor=none;shape=stencil(vVPLEoIgFP0aljgEVuPa6j+YRGUica6U9vdhUKk4LWzG3X0cOPdcOIilTclrgShpDOiLaGVmSsQOiFJZlQKksRFiR8TSXIMoQN+qzOU175F9dNX3/obOnSP9CUoeLktIFL8KJ4flcLZN8NhtRJiDwxsf7VwhQHjAhniCDvNONhi04UbqakSuOBQCWy6cK16MWk0rRB2U/XRKVgMlSRwl+1nyhWI+s0+Xs4KYgNvPtlBKuJvVniX4En+9yfxWVpDx2yc2+Bosl0o5fw77U0PakjMzOz4B);strokeColor=#ff5958;spacingTop=-3;spacingBottom=-3;spacingLeft=-3;spacingRight=-3;points=[];labelBackgroundColor=none;rounded=0;html=1;whiteSpace=wrap;container=0;" parent="1" vertex="1">
          <mxGeometry x="360" y="594.11" width="130" height="105.5" as="geometry" />
        </mxCell>
        <mxCell id="FQy4KhqO56olht-40FnH-4" value="&lt;div style=&quot;font-size: 1px&quot;&gt;&lt;font style=&quot;font-size:22.58px;font-family:Arial;color:#000000;direction:ltr;letter-spacing:0px;line-height:120%;opacity:1&quot;&gt;PosrgreSQL&lt;br&gt;&lt;/font&gt;&lt;/div&gt;&lt;div style=&quot;font-size: 1px&quot;&gt;&lt;font style=&quot;font-size:22.58px;font-family:Arial;color:#000000;direction:ltr;letter-spacing:0px;line-height:120%;opacity:1&quot;&gt;(master)&lt;/font&gt;&lt;/div&gt;" style="verticalAlign=bottom;align=center;overflow=width;vsdxID=6;fillColor=none;gradientColor=none;strokeColor=none;spacingTop=-3;spacingBottom=-3;spacingLeft=-3;spacingRight=-3;points=[];labelBackgroundColor=none;rounded=0;html=1;whiteSpace=wrap;container=0;" parent="1" vertex="1">
          <mxGeometry x="360" y="639.11" width="130" height="53.21" as="geometry" />
        </mxCell>
        <mxCell id="FQy4KhqO56olht-40FnH-5" value="" style="shape=image;verticalLabelPosition=bottom;verticalAlign=top;imageAspect=0;aspect=fixed;image=data:image/svg+xml,PHN2ZyB4bWxucz0iaHR0cDovL3d3dy53My5vcmcvMjAwMC9zdmciIHdpZHRoPSIzMiIgaGVpZ2h0PSIzMiIgdmlld0JveD0iMCAwIDMyIDMyIiBmaWxsPSJub25lIj4mI3hhOzxwYXRoIGQ9Ik0wIDE2QzAgNy4xNjM0NCA3LjE2MzQ0IDAgMTYgMFYwQzI0LjgzNjYgMCAzMiA3LjE2MzQ0IDMyIDE2VjE2QzMyIDI0LjgzNjYgMjQuODM2NiAzMiAxNiAzMlYzMkM3LjE2MzQ0IDMyIDAgMjQuODM2NiAwIDE2VjE2WiIgZmlsbD0iIzUyODJGRiIvPiYjeGE7PHBhdGggZmlsbC1ydWxlPSJldmVub2RkIiBjbGlwLXJ1bGU9ImV2ZW5vZGQiIGQ9Ik0xMyA4SDE4QzIxLjMgOCAyNCAxMC43IDI0IDE0VjI0SDIwVjIwSDIyVjE5SDE4LjZDMTUuNSAxOSAxMyAxNi41IDEzIDEzLjRWOFpNMTkgMTdIMjFWMTVIMTlWMTdaTTEyIDkuMDk5OThWMTMuNEMxMiAxNi44IDE0LjYgMTkuNyAxOCAyMC4xVjIwLjZDMTggMjIgMTUuOCAyMy4xIDEzIDIzLjFDMTAuMiAyMy4xIDggMjIgOCAyMC42VjExLjZDOCAxMC4zIDkuNyA5LjI5OTk4IDEyIDkuMDk5OThaIiBmaWxsPSJ3aGl0ZSIvPiYjeGE7PC9zdmc+;container=0;" parent="1" vertex="1">
          <mxGeometry x="404.5" y="598.11" width="36.26923076923077" height="36.26923076923077" as="geometry" />
        </mxCell>
        <mxCell id="tqWrYZf2EMafklv9475I-2" value="&lt;div style=&quot;font-size: 1px&quot;&gt;&lt;font style=&quot;font-size:22.58px;font-family:Arial;color:#000000;direction:ltr;letter-spacing:0px;line-height:120%;opacity:1&quot;&gt;Cloud 1&lt;/font&gt;&lt;/div&gt;" style="verticalAlign=bottom;align=center;overflow=width;vsdxID=5;fillColor=#e3ebff;gradientColor=none;shape=stencil(vVNBDsIgEHwNRwxCjHqu+g9iaUtEaBa09fdSwdpi9dBDb8vOwOwsGcQyW/FaIEqsA3MRjcxdhdgBUSp1JUA6XyF2RCwrDIgSzE3n4VzzjtlVV3PvXmjDPdLdoOQRTrvtavNqnAKXw9mDELkBIhDJaxrJZIy/YRLfbjFvpcVgHHfS6JGu4lAK7GVwoXg5gmwjRP3VjoMpqQcm9tPKs0z0Y6crWcBHqt0PN8tJspXFfmNKdpaBH8tYwML/VPjiE6dCKhXSOMTT+PlWiC47PgE=);strokeColor=none;spacingTop=-3;spacingBottom=-3;spacingLeft=-3;spacingRight=-3;points=[];labelBackgroundColor=none;rounded=0;html=1;whiteSpace=wrap;container=0;" parent="1" vertex="1">
          <mxGeometry x="720" y="360" width="540" height="460" as="geometry" />
        </mxCell>
        <mxCell id="tqWrYZf2EMafklv9475I-4" style="vsdxID=6;fillColor=none;gradientColor=none;shape=stencil(vVNdD4IgFP01POIQms1nq//BEpVF4q6U9u/DoFJxPdjm2/04cO65cBDL2oo3AlHSGtAX0cncVIgdEKWyrgRIYyPEjohlhQZRgr7VucsbPiCH6Krvww29O0eGE5Q8XJaSaPcqnByWw9k2wWNZRFMHhzc+SlwhQHhATDxBj3kvWwzacCN1PSFXHEqBLRcuFC8nrbYTognKfjol65GSNIn28SL5SjGf2efL2UBMwO1nWykl3M1mzxJ8ib/eZHkrG8j47RMbfA1WSKWcP8f9uSFtyZmZHZ8=);strokeColor=#5282ff;spacingTop=-3;spacingBottom=-3;spacingLeft=-3;spacingRight=-3;points=[];labelBackgroundColor=none;rounded=0;html=1;whiteSpace=wrap;container=0;" parent="1" vertex="1">
          <mxGeometry x="740" y="400" width="500" height="170" as="geometry" />
        </mxCell>
        <mxCell id="tqWrYZf2EMafklv9475I-5" style="vsdxID=5;fillColor=none;gradientColor=none;shape=stencil(vVPLEoIgFP0aljgEVuPa6j+YRGUica6U9vdhUKk4LWzG3X0cOPdcOIilTclrgShpDOiLaGVmSsQOiFJZlQKksRFiR8TSXIMoQN+qzOU175F9dNX3/obOnSP9CUoeLktIFL8KJ4flcLZN8NhtRJiDwxsf7VwhQHjAhniCDvNONhi04UbqakSuOBQCWy6cK16MWk0rRB2U/XRKVgMlSRwl+1nyhWI+s0+Xs4KYgNvPtlBKuJvVniX4En+9yfxWVpDx2yc2+Bosl0o5fw77U0PakjMzOz4B);strokeColor=#ff5958;spacingTop=-3;spacingBottom=-3;spacingLeft=-3;spacingRight=-3;points=[];labelBackgroundColor=none;rounded=0;html=1;whiteSpace=wrap;container=0;" parent="1" vertex="1">
          <mxGeometry x="880" y="416.86" width="350" height="143.14" as="geometry" />
        </mxCell>
        <mxCell id="tqWrYZf2EMafklv9475I-6" value="&lt;div style=&quot;font-size: 1px&quot;&gt;&lt;font style=&quot;font-size:22.58px;font-family:Arial;color:#000000;direction:ltr;letter-spacing:0px;line-height:120%;opacity:1&quot;&gt;InsureTech&amp;nbsp;&lt;/font&gt;&lt;span style=&quot;font-family: Arial; font-size: 22.58px; letter-spacing: 0px; background-color: initial;&quot;&gt;namespace&lt;/span&gt;&lt;/div&gt;" style="verticalAlign=bottom;align=center;overflow=width;vsdxID=6;fillColor=none;gradientColor=none;strokeColor=none;spacingTop=-3;spacingBottom=-3;spacingLeft=-3;spacingRight=-3;points=[];labelBackgroundColor=none;rounded=0;html=1;whiteSpace=wrap;container=0;" parent="1" vertex="1">
          <mxGeometry x="910" y="410" width="250" height="34" as="geometry" />
        </mxCell>
        <mxCell id="tqWrYZf2EMafklv9475I-7" value="" style="group" parent="1" vertex="1" connectable="0">
          <mxGeometry x="740" y="400" width="320" height="133.71" as="geometry" />
        </mxCell>
        <mxCell id="tqWrYZf2EMafklv9475I-8" value="" style="shape=image;verticalLabelPosition=bottom;verticalAlign=top;imageAspect=0;aspect=fixed;image=data:image/svg+xml,PHN2ZyB4bWxucz0iaHR0cDovL3d3dy53My5vcmcvMjAwMC9zdmciIHdpZHRoPSIzMiIgaGVpZ2h0PSIzMiIgdmlld0JveD0iMCAwIDMyIDMyIiBmaWxsPSJub25lIj4mI3hhOzxwYXRoIGQ9Ik0wIDE2QzAgNy4xNjM0NCA3LjE2MzQ0IDAgMTYgMFYwQzI0LjgzNjYgMCAzMiA3LjE2MzQ0IDMyIDE2VjE2QzMyIDI0LjgzNjYgMjQuODM2NiAzMiAxNiAzMlYzMkM3LjE2MzQ0IDMyIDAgMjQuODM2NiAwIDE2VjE2WiIgZmlsbD0iIzUyODJGRiIvPiYjeGE7PHBhdGggZD0iTTExLjk5NSAyNEw3LjAwMDk4IDE3LjczOEw4Ljc4MTk4IDkuOTI3TDE2IDYuNDUzTDIzLjIxOCA5LjkyOEwyNC45OTkgMTcuNzM5TDIwLjAwNSAyNEgxMS45OTVaTTIwIDEzLjE5NkwxNS45OTkgMTAuODk5TDEyIDEzLjE5NlYxOC4xTDE2IDIwLjQwMUwyMCAxOC4xVjEzLjE5NlpNMTguNzggMTMuODk2SDE4Ljc4N0wxNiAxNS40OTlMMTMuMjE0IDEzLjg5NUgxMy4yMTlMMTUuOTk5IDEyLjI5OUwxOC43OCAxMy44OTZaIiBmaWxsPSJ3aGl0ZSIvPiYjeGE7PC9zdmc+;container=0;" parent="tqWrYZf2EMafklv9475I-7" vertex="1">
          <mxGeometry x="43.99515151515152" y="86.14999999999996" width="27.69545454545455" height="27.69545454545455" as="geometry" />
        </mxCell>
        <mxCell id="tqWrYZf2EMafklv9475I-9" value="&lt;div style=&quot;font-size: 1px&quot;&gt;&lt;font style=&quot;font-size:22.58px;font-family:Arial;color:#000000;direction:ltr;letter-spacing:0px;line-height:120%;opacity:1&quot;&gt;Kubernetes&lt;br&gt;&lt;/font&gt;&lt;/div&gt;&lt;div style=&quot;font-size: 1px&quot;&gt;&lt;font style=&quot;font-size:22.58px;font-family:Arial;color:#000000;direction:ltr;letter-spacing:0px;line-height:120%;opacity:1&quot;&gt;cluster 2&lt;/font&gt;&lt;/div&gt;" style="verticalAlign=middle;align=center;overflow=width;vsdxID=7;fillColor=none;gradientColor=none;shape=stencil(nZBLDoAgDERP0z3SIyjew0SURgSD+Lu9kMZoXLhwN9O+tukAlrNpJg1SzDH4QW/URgNYgZTkjA4UkwJUgGXng+6DX1zLfmoymdXo17xh5zmRJ6Q42BWCfc2oJfdAr+Yv+AP9Cb7OJ3H/2JG1HNGz/84klThPVCc=);strokeColor=none;points=[];labelBackgroundColor=none;rounded=0;html=1;whiteSpace=wrap;container=0;" parent="tqWrYZf2EMafklv9475I-7" vertex="1">
          <mxGeometry x="9.696969696969697" width="116.36363636363637" height="86.13999999999999" as="geometry" />
        </mxCell>
        <mxCell id="tqWrYZf2EMafklv9475I-10" value="" style="shape=image;verticalLabelPosition=bottom;verticalAlign=top;imageAspect=0;aspect=fixed;image=data:image/svg+xml,PHN2ZyB4bWxucz0iaHR0cDovL3d3dy53My5vcmcvMjAwMC9zdmciIHdpZHRoPSIzMiIgaGVpZ2h0PSIzMiIgdmlld0JveD0iMCAwIDMyIDMyIiBmaWxsPSJub25lIj4mI3hhOzxwYXRoIGQ9Ik0wIDE2QzAgNy4xNjM0NCA3LjE2MzQ0IDAgMTYgMFYwQzI0LjgzNjYgMCAzMiA3LjE2MzQ0IDMyIDE2VjE2QzMyIDI0LjgzNjYgMjQuODM2NiAzMiAxNiAzMlYzMkM3LjE2MzQ0IDMyIDAgMjQuODM2NiAwIDE2VjE2WiIgZmlsbD0iIzUyODJGRiIvPiYjeGE7PHBhdGggZD0iTTExLjk5NSAyNEw3LjAwMDk4IDE3LjczOEw4Ljc4MTk4IDkuOTI3TDE2IDYuNDUzTDIzLjIxOCA5LjkyOEwyNC45OTkgMTcuNzM5TDIwLjAwNSAyNEgxMS45OTVaTTIwIDEzLjE5NkwxNS45OTkgMTAuODk5TDEyIDEzLjE5NlYxOC4xTDE2IDIwLjQwMUwyMCAxOC4xVjEzLjE5NlpNMTguNzggMTMuODk2SDE4Ljc4N0wxNiAxNS40OTlMMTMuMjE0IDEzLjg5NUgxMy4yMTlMMTUuOTk5IDEyLjI5OUwxOC43OCAxMy44OTZaIiBmaWxsPSJ3aGl0ZSIvPiYjeGE7PC9zdmc+;container=0;" parent="tqWrYZf2EMafklv9475I-7" vertex="1">
          <mxGeometry x="145.70999999999998" y="20" width="28.571428571428573" height="28.571428571428573" as="geometry" />
        </mxCell>
        <mxCell id="tqWrYZf2EMafklv9475I-57" value="" style="aspect=fixed;sketch=0;html=1;dashed=0;whitespace=wrap;verticalLabelPosition=bottom;verticalAlign=top;fillColor=#2875E2;strokeColor=#ffffff;points=[[0.005,0.63,0],[0.1,0.2,0],[0.9,0.2,0],[0.5,0,0],[0.995,0.63,0],[0.72,0.99,0],[0.5,1,0],[0.28,0.99,0]];shape=mxgraph.kubernetes.icon2;kubernetesLabel=1;prIcon=etcd" parent="tqWrYZf2EMafklv9475I-7" vertex="1">
          <mxGeometry x="160" y="60" width="31.25" height="30" as="geometry" />
        </mxCell>
        <mxCell id="tqWrYZf2EMafklv9475I-14" value="&lt;div style=&quot;font-size: 1px&quot;&gt;&lt;font style=&quot;font-size:22.58px;font-family:Arial;color:#000000;direction:ltr;letter-spacing:0px;line-height:120%;opacity:1&quot;&gt;Load balancer&lt;br&gt;&lt;/font&gt;&lt;/div&gt;" style="verticalAlign=middle;align=center;overflow=width;vsdxID=5;fillColor=#fff2bf;gradientColor=none;shape=stencil(vVNBDsIgEHwNRwxCjHqu+g9iaUtEaBa09fdSwdpi9dBDb8vOwOwsGcQyW/FaIEqsA3MRjcxdhdgBUSp1JUA6XyF2RCwrDIgSzE3n4VzzjtlVV3PvXmjDPdLdoOQRTrvtavNqnAKXw9mDELkBIhDJaxrJZIy/YRLfbjFvpcVgHHfS6JGu4lAK7GVwoXg5gmwjRP3VjoMpqQcm9tPKs0z0Y6crWcBHqt0PN8tJspXFfmNKdpaBH8tYwML/VPjiE6dCKhXSOMTT+PlWiC47PgE=);strokeColor=none;spacingTop=-3;spacingBottom=-3;spacingLeft=-3;spacingRight=-3;points=[];labelBackgroundColor=none;rounded=0;html=1;whiteSpace=wrap;" parent="1" vertex="1">
          <mxGeometry x="315" y="310" width="220" height="50" as="geometry" />
        </mxCell>
        <mxCell id="tqWrYZf2EMafklv9475I-17" value="" style="endArrow=classic;html=1;rounded=0;exitX=0.454;exitY=1.015;exitDx=0;exitDy=0;exitPerimeter=0;" parent="1" source="Q4Ri82wqA0Fsp0xCA-Nv-1" target="tqWrYZf2EMafklv9475I-14" edge="1">
          <mxGeometry width="50" height="50" relative="1" as="geometry">
            <mxPoint x="820" y="400" as="sourcePoint" />
            <mxPoint x="870" y="350" as="targetPoint" />
          </mxGeometry>
        </mxCell>
        <mxCell id="tqWrYZf2EMafklv9475I-18" value="" style="endArrow=classic;html=1;rounded=0;exitX=0.495;exitY=0.92;exitDx=0;exitDy=0;exitPerimeter=0;" parent="1" source="tqWrYZf2EMafklv9475I-14" edge="1">
          <mxGeometry width="50" height="50" relative="1" as="geometry">
            <mxPoint x="424.5" y="300" as="sourcePoint" />
            <mxPoint x="424" y="401" as="targetPoint" />
          </mxGeometry>
        </mxCell>
        <mxCell id="tqWrYZf2EMafklv9475I-19" style="edgeStyle=orthogonalEdgeStyle;rounded=1;orthogonalLoop=1;jettySize=auto;html=1;entryX=0.649;entryY=-0.007;entryDx=0;entryDy=0;entryPerimeter=0;curved=0;" parent="1" source="tqWrYZf2EMafklv9475I-14" target="tqWrYZf2EMafklv9475I-4" edge="1">
          <mxGeometry relative="1" as="geometry" />
        </mxCell>
        <mxCell id="tqWrYZf2EMafklv9475I-20" value="&lt;h1 style=&quot;margin-top: 0px;&quot;&gt;Стратегия масштабирования и отказоустойчивости&lt;/h1&gt;&lt;p&gt;Перед тем как принимать решения предполагаю исследование узких мест системы. Беру в работу допущение, что требуется масштабирование и приложения и БД.&lt;/p&gt;&lt;p&gt;Для решения проблем предлагаю использовать гибридное решение. При повышении нагрузки часть запросов перенаправлять в облако.Это решение позволит сэкономить на покупке и обслуживании собственной инфраструктуры и решит проблему замедления работы в пиковые часы. В дальнейшем это позволит принять решение где именно развивать систему, в собственной инфраструктуре или облаке.&lt;/p&gt;&lt;p&gt;Для БД настроить кластер с помощью Patroni, добавив две реплики в облако. Т.к. кластер PostgreSQL требует минимум 3 узла хранилища конфигурации нужно подключить две зоны доступности.&lt;/p&gt;" style="text;html=1;whiteSpace=wrap;overflow=hidden;rounded=0;" parent="1" vertex="1">
          <mxGeometry x="660" y="-70" width="719.23" height="210" as="geometry" />
        </mxCell>
        <mxCell id="tqWrYZf2EMafklv9475I-24" style="vsdxID=5;fillColor=none;gradientColor=none;shape=stencil(vVPLEoIgFP0aljgEVuPa6j+YRGUica6U9vdhUKk4LWzG3X0cOPdcOIilTclrgShpDOiLaGVmSsQOiFJZlQKksRFiR8TSXIMoQN+qzOU175F9dNX3/obOnSP9CUoeLktIFL8KJ4flcLZN8NhtRJiDwxsf7VwhQHjAhniCDvNONhi04UbqakSuOBQCWy6cK16MWk0rRB2U/XRKVgMlSRwl+1nyhWI+s0+Xs4KYgNvPtlBKuJvVniX4En+9yfxWVpDx2yc2+Bosl0o5fw77U0PakjMzOz4B);strokeColor=#ff5958;spacingTop=-3;spacingBottom=-3;spacingLeft=-3;spacingRight=-3;points=[];labelBackgroundColor=none;rounded=0;html=1;whiteSpace=wrap;container=0;" parent="1" vertex="1">
          <mxGeometry x="740" y="594.1" width="130" height="105.5" as="geometry" />
        </mxCell>
        <mxCell id="tqWrYZf2EMafklv9475I-25" value="&lt;div style=&quot;font-size: 1px&quot;&gt;&lt;font style=&quot;font-size:22.58px;font-family:Arial;color:#000000;direction:ltr;letter-spacing:0px;line-height:120%;opacity:1&quot;&gt;PosrgreSQL&lt;br&gt;&lt;/font&gt;&lt;/div&gt;&lt;div style=&quot;font-size: 1px&quot;&gt;&lt;font style=&quot;font-size:22.58px;font-family:Arial;color:#000000;direction:ltr;letter-spacing:0px;line-height:120%;opacity:1&quot;&gt;(replica)&lt;/font&gt;&lt;/div&gt;" style="verticalAlign=bottom;align=center;overflow=width;vsdxID=6;fillColor=none;gradientColor=none;strokeColor=none;spacingTop=-3;spacingBottom=-3;spacingLeft=-3;spacingRight=-3;points=[];labelBackgroundColor=none;rounded=0;html=1;whiteSpace=wrap;container=0;" parent="1" vertex="1">
          <mxGeometry x="740" y="639.1" width="130" height="53.21" as="geometry" />
        </mxCell>
        <mxCell id="tqWrYZf2EMafklv9475I-26" value="" style="shape=image;verticalLabelPosition=bottom;verticalAlign=top;imageAspect=0;aspect=fixed;image=data:image/svg+xml,PHN2ZyB4bWxucz0iaHR0cDovL3d3dy53My5vcmcvMjAwMC9zdmciIHdpZHRoPSIzMiIgaGVpZ2h0PSIzMiIgdmlld0JveD0iMCAwIDMyIDMyIiBmaWxsPSJub25lIj4mI3hhOzxwYXRoIGQ9Ik0wIDE2QzAgNy4xNjM0NCA3LjE2MzQ0IDAgMTYgMFYwQzI0LjgzNjYgMCAzMiA3LjE2MzQ0IDMyIDE2VjE2QzMyIDI0LjgzNjYgMjQuODM2NiAzMiAxNiAzMlYzMkM3LjE2MzQ0IDMyIDAgMjQuODM2NiAwIDE2VjE2WiIgZmlsbD0iIzUyODJGRiIvPiYjeGE7PHBhdGggZmlsbC1ydWxlPSJldmVub2RkIiBjbGlwLXJ1bGU9ImV2ZW5vZGQiIGQ9Ik0xMyA4SDE4QzIxLjMgOCAyNCAxMC43IDI0IDE0VjI0SDIwVjIwSDIyVjE5SDE4LjZDMTUuNSAxOSAxMyAxNi41IDEzIDEzLjRWOFpNMTkgMTdIMjFWMTVIMTlWMTdaTTEyIDkuMDk5OThWMTMuNEMxMiAxNi44IDE0LjYgMTkuNyAxOCAyMC4xVjIwLjZDMTggMjIgMTUuOCAyMy4xIDEzIDIzLjFDMTAuMiAyMy4xIDggMjIgOCAyMC42VjExLjZDOCAxMC4zIDkuNyA5LjI5OTk4IDEyIDkuMDk5OThaIiBmaWxsPSJ3aGl0ZSIvPiYjeGE7PC9zdmc+;container=0;" parent="1" vertex="1">
          <mxGeometry x="784.5" y="598.1" width="36.26923076923077" height="36.26923076923077" as="geometry" />
        </mxCell>
        <mxCell id="tqWrYZf2EMafklv9475I-46" value="&lt;h1 style=&quot;margin-top: 0px;&quot;&gt;Дополнительные шаги для развития системы&lt;/h1&gt;&lt;p&gt;Дальнейшее развитие системы возможно в следующих направлениях:&lt;/p&gt;&lt;p&gt;1. Инструменты мониторинга Сейчас о них не идёт речи в задаче, но стоит их добавить.&lt;/p&gt;&lt;p&gt;2. Геомасштабирование&lt;/p&gt;&lt;p&gt;&lt;span style=&quot;white-space: pre;&quot;&gt;&#x9;&lt;/span&gt;2.1. Возможно использование шардов с географическим признаком деления.&amp;nbsp; Нужно будет выбрать зоны доступности в разных регионах и настроить шардирование по ним.&lt;br&gt;&lt;/p&gt;&lt;p&gt;3. БД:&lt;/p&gt;&lt;p&gt;&lt;span style=&quot;background-color: initial;&quot;&gt;&amp;nbsp; &amp;nbsp; &amp;nbsp; &amp;nbsp; 3.1Возможно добавление дополнительных реплик на чтение если существующего количества реплика не будет хватать. Может подумать над применением паттерна read replica, потому что количество запросов на чтение в 5 раз больше чем на запись, судя по задаче.&lt;/span&gt;&lt;/p&gt;" style="text;html=1;whiteSpace=wrap;overflow=hidden;rounded=0;" parent="1" vertex="1">
          <mxGeometry x="-300" y="850" width="610" height="260" as="geometry" />
        </mxCell>
        <mxCell id="tqWrYZf2EMafklv9475I-47" value="&lt;h1 style=&quot;margin-top: 0px;&quot;&gt;Балансировка&lt;/h1&gt;&lt;p&gt;Для реализации решения нужно в инфраструктуре InsureTech установить балансировщик, принцип балансировки - порог по RPS, если следующий запрос превысит заданный порог, отправить его в облако. Данный механизм позволит справится с всплесками нагрузки и перенаправить излишки в облако, которой проще и удобнее масштабировать во всех направлениях.&lt;/p&gt;&lt;p&gt;&lt;br&gt;&lt;/p&gt;" style="text;html=1;whiteSpace=wrap;overflow=hidden;rounded=0;" parent="1" vertex="1">
          <mxGeometry x="-160" y="100" width="420" height="140" as="geometry" />
        </mxCell>
        <mxCell id="tqWrYZf2EMafklv9475I-48" style="rounded=0;orthogonalLoop=1;jettySize=auto;html=1;dashed=1;dashPattern=1 2;endArrow=oval;endFill=0;" parent="1" source="tqWrYZf2EMafklv9475I-47" edge="1">
          <mxGeometry relative="1" as="geometry">
            <mxPoint x="330" y="320" as="targetPoint" />
          </mxGeometry>
        </mxCell>
        <mxCell id="tqWrYZf2EMafklv9475I-49" value="&lt;h1 style=&quot;margin-top: 0px;&quot;&gt;Реплики базы данных&lt;/h1&gt;&lt;p&gt;Для повышения отказоустойчивости системы настроить кластер БД и соответственно&amp;nbsp;&lt;span style=&quot;background-color: initial;&quot;&gt;поставить как минимум по одной реплике БД PostgreSQL. Для настройки использовать Patroni и etcd&lt;/span&gt;&lt;/p&gt;" style="text;html=1;whiteSpace=wrap;overflow=hidden;rounded=0;" parent="1" vertex="1">
          <mxGeometry x="1080" y="840" width="420" height="138.18" as="geometry" />
        </mxCell>
        <mxCell id="tqWrYZf2EMafklv9475I-53" style="vsdxID=5;fillColor=none;gradientColor=none;shape=stencil(vVPLEoIgFP0aljgEVuPa6j+YRGUica6U9vdhUKk4LWzG3X0cOPdcOIilTclrgShpDOiLaGVmSsQOiFJZlQKksRFiR8TSXIMoQN+qzOU175F9dNX3/obOnSP9CUoeLktIFL8KJ4flcLZN8NhtRJiDwxsf7VwhQHjAhniCDvNONhi04UbqakSuOBQCWy6cK16MWk0rRB2U/XRKVgMlSRwl+1nyhWI+s0+Xs4KYgNvPtlBKuJvVniX4En+9yfxWVpDx2yc2+Bosl0o5fw77U0PakjMzOz4B);strokeColor=#ff5958;spacingTop=-3;spacingBottom=-3;spacingLeft=-3;spacingRight=-3;points=[];labelBackgroundColor=none;rounded=0;html=1;whiteSpace=wrap;container=0;" parent="1" vertex="1">
          <mxGeometry x="1310" y="594.1" width="130" height="105.5" as="geometry" />
        </mxCell>
        <mxCell id="tqWrYZf2EMafklv9475I-54" value="&lt;div style=&quot;font-size: 1px&quot;&gt;&lt;font style=&quot;font-size:22.58px;font-family:Arial;color:#000000;direction:ltr;letter-spacing:0px;line-height:120%;opacity:1&quot;&gt;PosrgreSQL&lt;br&gt;&lt;/font&gt;&lt;/div&gt;&lt;div style=&quot;font-size: 1px&quot;&gt;&lt;font style=&quot;font-size:22.58px;font-family:Arial;color:#000000;direction:ltr;letter-spacing:0px;line-height:120%;opacity:1&quot;&gt;(replica)&lt;/font&gt;&lt;/div&gt;" style="verticalAlign=bottom;align=center;overflow=width;vsdxID=6;fillColor=none;gradientColor=none;strokeColor=none;spacingTop=-3;spacingBottom=-3;spacingLeft=-3;spacingRight=-3;points=[];labelBackgroundColor=none;rounded=0;html=1;whiteSpace=wrap;container=0;" parent="1" vertex="1">
          <mxGeometry x="1310" y="639.1" width="130" height="53.21" as="geometry" />
        </mxCell>
        <mxCell id="tqWrYZf2EMafklv9475I-55" value="" style="shape=image;verticalLabelPosition=bottom;verticalAlign=top;imageAspect=0;aspect=fixed;image=data:image/svg+xml,PHN2ZyB4bWxucz0iaHR0cDovL3d3dy53My5vcmcvMjAwMC9zdmciIHdpZHRoPSIzMiIgaGVpZ2h0PSIzMiIgdmlld0JveD0iMCAwIDMyIDMyIiBmaWxsPSJub25lIj4mI3hhOzxwYXRoIGQ9Ik0wIDE2QzAgNy4xNjM0NCA3LjE2MzQ0IDAgMTYgMFYwQzI0LjgzNjYgMCAzMiA3LjE2MzQ0IDMyIDE2VjE2QzMyIDI0LjgzNjYgMjQuODM2NiAzMiAxNiAzMlYzMkM3LjE2MzQ0IDMyIDAgMjQuODM2NiAwIDE2VjE2WiIgZmlsbD0iIzUyODJGRiIvPiYjeGE7PHBhdGggZmlsbC1ydWxlPSJldmVub2RkIiBjbGlwLXJ1bGU9ImV2ZW5vZGQiIGQ9Ik0xMyA4SDE4QzIxLjMgOCAyNCAxMC43IDI0IDE0VjI0SDIwVjIwSDIyVjE5SDE4LjZDMTUuNSAxOSAxMyAxNi41IDEzIDEzLjRWOFpNMTkgMTdIMjFWMTVIMTlWMTdaTTEyIDkuMDk5OThWMTMuNEMxMiAxNi44IDE0LjYgMTkuNyAxOCAyMC4xVjIwLjZDMTggMjIgMTUuOCAyMy4xIDEzIDIzLjFDMTAuMiAyMy4xIDggMjIgOCAyMC42VjExLjZDOCAxMC4zIDkuNyA5LjI5OTk4IDEyIDkuMDk5OThaIiBmaWxsPSJ3aGl0ZSIvPiYjeGE7PC9zdmc+;container=0;" parent="1" vertex="1">
          <mxGeometry x="1354.5" y="598.1" width="36.26923076923077" height="36.26923076923077" as="geometry" />
        </mxCell>
        <mxCell id="tqWrYZf2EMafklv9475I-56" value="" style="aspect=fixed;sketch=0;html=1;dashed=0;whitespace=wrap;verticalLabelPosition=bottom;verticalAlign=top;fillColor=#2875E2;strokeColor=#ffffff;points=[[0.005,0.63,0],[0.1,0.2,0],[0.9,0.2,0],[0.5,0,0],[0.995,0.63,0],[0.72,0.99,0],[0.5,1,0],[0.28,0.99,0]];shape=mxgraph.kubernetes.icon2;kubernetesLabel=1;prIcon=etcd" parent="1" vertex="1">
          <mxGeometry x="356" y="460" width="31.25" height="30" as="geometry" />
        </mxCell>
        <mxCell id="tqWrYZf2EMafklv9475I-58" value="" style="aspect=fixed;sketch=0;html=1;dashed=0;whitespace=wrap;verticalLabelPosition=bottom;verticalAlign=top;fillColor=#2875E2;strokeColor=#ffffff;points=[[0.005,0.63,0],[0.1,0.2,0],[0.9,0.2,0],[0.5,0,0],[0.995,0.63,0],[0.72,0.99,0],[0.5,1,0],[0.28,0.99,0]];shape=mxgraph.kubernetes.icon2;kubernetesLabel=1;prIcon=etcd" parent="1" vertex="1">
          <mxGeometry x="1310" y="433" width="31.25" height="30" as="geometry" />
        </mxCell>
        <mxCell id="tqWrYZf2EMafklv9475I-62" value="&lt;div style=&quot;&quot;&gt;&lt;font face=&quot;Arial&quot;&gt;&lt;span style=&quot;font-size: 22.58px;&quot;&gt;etcd хранилище конфигураций кластера БД&lt;/span&gt;&lt;/font&gt;&lt;/div&gt;" style="verticalAlign=bottom;align=left;overflow=width;vsdxID=6;fillColor=none;gradientColor=none;strokeColor=none;spacingTop=-3;spacingBottom=-3;spacingLeft=-3;spacingRight=-3;points=[];labelBackgroundColor=none;rounded=0;html=1;whiteSpace=wrap;container=0;" parent="1" vertex="1">
          <mxGeometry x="400" y="449.71" width="280" height="84" as="geometry" />
        </mxCell>
        <mxCell id="tqWrYZf2EMafklv9475I-50" style="rounded=0;orthogonalLoop=1;jettySize=auto;html=1;dashed=1;dashPattern=1 2;endArrow=oval;endFill=0;" parent="1" source="tqWrYZf2EMafklv9475I-49" target="tqWrYZf2EMafklv9475I-53" edge="1">
          <mxGeometry relative="1" as="geometry">
            <mxPoint x="1478" y="310" as="sourcePoint" />
            <mxPoint x="211.17522232496412" y="760" as="targetPoint" />
          </mxGeometry>
        </mxCell>
        <mxCell id="tqWrYZf2EMafklv9475I-63" style="rounded=0;orthogonalLoop=1;jettySize=auto;html=1;dashed=1;dashPattern=1 2;endArrow=oval;endFill=0;entryX=0.761;entryY=1.007;entryDx=0;entryDy=0;entryPerimeter=0;exitX=0.5;exitY=0;exitDx=0;exitDy=0;" parent="1" source="tqWrYZf2EMafklv9475I-49" target="tqWrYZf2EMafklv9475I-24" edge="1">
          <mxGeometry relative="1" as="geometry">
            <mxPoint x="1310" y="996" as="sourcePoint" />
            <mxPoint x="1373" y="710" as="targetPoint" />
          </mxGeometry>
        </mxCell>
        <mxCell id="tqWrYZf2EMafklv9475I-64" value="&lt;div style=&quot;&quot;&gt;&lt;font face=&quot;Arial&quot;&gt;&lt;span style=&quot;font-size: 22.58px;&quot;&gt;etcd хранилище конфигураций кластера БД&lt;/span&gt;&lt;/font&gt;&lt;/div&gt;" style="verticalAlign=bottom;align=left;overflow=width;vsdxID=6;fillColor=none;gradientColor=none;strokeColor=none;spacingTop=-3;spacingBottom=-3;spacingLeft=-3;spacingRight=-3;points=[];labelBackgroundColor=none;rounded=0;html=1;whiteSpace=wrap;container=0;" parent="1" vertex="1">
          <mxGeometry x="940" y="456" width="280" height="84" as="geometry" />
        </mxCell>
        <mxCell id="tqWrYZf2EMafklv9475I-65" value="&lt;div style=&quot;&quot;&gt;&lt;font face=&quot;Arial&quot;&gt;&lt;span style=&quot;font-size: 22.58px;&quot;&gt;etcd хранилище конфигураций кластера БД&lt;/span&gt;&lt;/font&gt;&lt;/div&gt;" style="verticalAlign=bottom;align=left;overflow=width;vsdxID=6;fillColor=none;gradientColor=none;strokeColor=none;spacingTop=-3;spacingBottom=-3;spacingLeft=-3;spacingRight=-3;points=[];labelBackgroundColor=none;rounded=0;html=1;whiteSpace=wrap;container=0;" parent="1" vertex="1">
          <mxGeometry x="1354.5" y="433" width="280" height="84" as="geometry" />
        </mxCell>
        <mxCell id="tqWrYZf2EMafklv9475I-67" style="edgeStyle=orthogonalEdgeStyle;rounded=0;orthogonalLoop=1;jettySize=auto;html=1;exitX=0.996;exitY=0.156;exitDx=0;exitDy=0;exitPerimeter=0;endArrow=classic;endFill=1;startArrow=none;startFill=0;" parent="1" source="FQy4KhqO56olht-40FnH-4" target="tqWrYZf2EMafklv9475I-24" edge="1">
          <mxGeometry relative="1" as="geometry" />
        </mxCell>
        <mxCell id="tqWrYZf2EMafklv9475I-68" style="edgeStyle=orthogonalEdgeStyle;rounded=0;orthogonalLoop=1;jettySize=auto;html=1;exitX=1.024;exitY=0.112;exitDx=0;exitDy=0;exitPerimeter=0;endArrow=classic;endFill=1;startArrow=none;startFill=0;" parent="1" source="tqWrYZf2EMafklv9475I-25" edge="1">
          <mxGeometry relative="1" as="geometry">
            <mxPoint x="499" y="657" as="sourcePoint" />
            <mxPoint x="1310" y="645" as="targetPoint" />
          </mxGeometry>
        </mxCell>
        <mxCell id="tqWrYZf2EMafklv9475I-70" value="&lt;h1 style=&quot;margin-top: 0px;&quot;&gt;Кластеры k8s&lt;/h1&gt;&lt;div&gt;Если приложение готово к разнесению на несколько зон, то предлагаю сдедать два кластера в зонах с помощью service mesh Istio. С помощью этого инструмента возможно будет настроить федерацию, использовать фичи Istio для централизованного сбора метрик, трассировки, логов. Возможно подумать над использованием Istio вместо балансировщика нагрузки.&lt;/div&gt;" style="text;html=1;whiteSpace=wrap;overflow=hidden;rounded=0;" parent="1" vertex="1">
          <mxGeometry x="1130" y="171.82" width="460" height="138.18" as="geometry" />
        </mxCell>
        <mxCell id="tqWrYZf2EMafklv9475I-71" style="rounded=0;orthogonalLoop=1;jettySize=auto;html=1;dashed=1;dashPattern=1 2;endArrow=oval;endFill=0;" parent="1" source="tqWrYZf2EMafklv9475I-70" target="tqWrYZf2EMafklv9475I-4" edge="1">
          <mxGeometry relative="1" as="geometry">
            <mxPoint x="1322" y="850" as="sourcePoint" />
            <mxPoint x="1368" y="710" as="targetPoint" />
          </mxGeometry>
        </mxCell>
        <mxCell id="EKD9GqcRS8-eTL_HnVgu-1" style="rounded=0;orthogonalLoop=1;jettySize=auto;html=1;dashed=1;dashPattern=1 2;endArrow=oval;endFill=0;entryX=0.111;entryY=0.926;entryDx=0;entryDy=0;entryPerimeter=0;" parent="1" source="tqWrYZf2EMafklv9475I-46" target="ajpG1NfuQ6T0s5yXVwmS-1" edge="1">
          <mxGeometry relative="1" as="geometry">
            <mxPoint x="340" y="330" as="targetPoint" />
            <mxPoint x="191" y="250" as="sourcePoint" />
          </mxGeometry>
        </mxCell>
      </root>
    </mxGraphModel>
  </diagram>
</mxfile>
